<svg width="138" height="16" viewBox="0 0 138 16" fill="none" xmlns="http://www.w3.org/2000/svg">
<path d="M130.273 12.2485H130.037C129.621 12.2485 129.296 12.1092 129.06 11.8304C128.825 11.5442 128.648 11.2391 128.531 10.9152L126.294 4.7231H125.988V14.1468C125.988 14.6817 125.894 15.111 125.706 15.435C125.517 15.7513 125.086 15.9095 124.411 15.9095C123.658 15.9095 123.175 15.7551 122.963 15.4463C122.751 15.1374 122.646 14.7043 122.646 14.1468V2.6666C122.646 2.18449 122.673 1.75135 122.728 1.36717C122.791 0.975454 122.944 0.666603 123.187 0.440615C123.438 0.207093 123.846 0.090332 124.411 0.090332H126.012C126.42 0.090332 126.742 0.12423 126.977 0.192027C127.212 0.259824 127.444 0.474513 127.671 0.836095C127.813 1.05455 127.981 1.39353 128.178 1.85304C128.358 2.28996 128.57 2.85116 128.813 3.53666C129.056 4.22216 129.355 5.06208 129.708 6.05643L130.014 6.96039H130.296L130.673 5.83044C130.83 5.35587 130.979 4.91896 131.12 4.51971C131.261 4.11293 131.387 3.74758 131.497 3.42367C131.724 2.7683 131.924 2.22969 132.097 1.80785C132.27 1.37847 132.427 1.04702 132.568 0.813496C132.772 0.46698 132.988 0.259824 133.215 0.192027C133.451 0.12423 133.764 0.090332 134.157 0.090332H135.875C136.44 0.090332 136.844 0.207093 137.088 0.440615C137.339 0.666603 137.492 0.975454 137.547 1.36717C137.609 1.75135 137.641 2.18449 137.641 2.6666V14.1468C137.641 14.7043 137.535 15.1374 137.323 15.4463C137.111 15.7551 136.629 15.9095 135.875 15.9095C135.208 15.9095 134.777 15.7513 134.581 15.435C134.392 15.111 134.298 14.6817 134.298 14.1468V4.7231H133.968L131.756 10.9152C131.622 11.2391 131.446 11.5442 131.226 11.8304C131.014 12.1092 130.696 12.2485 130.273 12.2485Z" fill="#03C7A6"/>
<path d="M120.268 3.41237L116.737 9.42367V13.3559C116.737 13.8154 116.697 14.241 116.619 14.6327C116.54 15.0169 116.376 15.3257 116.124 15.5593C115.881 15.7928 115.497 15.9095 114.971 15.9095C114.445 15.9095 114.053 15.7928 113.794 15.5593C113.543 15.3257 113.378 15.0169 113.3 14.6327C113.221 14.241 113.182 13.8154 113.182 13.3559V9.42367L109.674 3.41237C109.486 3.09598 109.306 2.78713 109.133 2.48581C108.96 2.17696 108.874 1.86811 108.874 1.55926C108.874 1.35587 108.933 1.15248 109.051 0.949089C109.176 0.738166 109.4 0.542309 109.721 0.361518C110.075 0.180728 110.404 0.090332 110.71 0.090332C111.173 0.090332 111.558 0.274889 111.864 0.644004C112.178 1.00559 112.436 1.40107 112.641 1.83045L114.783 6.14683H115.159L117.302 1.83045C117.506 1.40107 117.761 1.00559 118.067 0.644004C118.38 0.274889 118.769 0.090332 119.232 0.090332C119.53 0.090332 119.86 0.180728 120.221 0.361518C120.527 0.542309 120.742 0.738166 120.868 0.949089C121.001 1.15248 121.068 1.35587 121.068 1.55926C121.068 1.70238 121.005 1.92084 120.88 2.21463C120.817 2.36528 120.735 2.54231 120.632 2.7457C120.53 2.94909 120.409 3.17131 120.268 3.41237Z" fill="#03C7A6"/>
<path d="M108.544 10.0565V14.8701C108.544 15.1337 108.47 15.3898 108.321 15.6384C108.172 15.8795 107.854 16 107.367 16C106.849 16 106.5 15.8832 106.32 15.6497C106.139 15.4162 106.049 15.1563 106.049 14.8701V14.1921C105.672 14.7269 105.19 15.1638 104.601 15.5028C104.021 15.8343 103.303 16 102.447 16C102.306 16 102.075 15.9887 101.753 15.9661C101.439 15.9435 101.086 15.8832 100.694 15.7853C100.301 15.6874 99.8972 15.5405 99.4813 15.3446C99.0811 15.1563 98.7044 14.8814 98.3513 14.5198C98.0139 14.1657 97.7314 13.7288 97.5039 13.209C97.2842 12.6893 97.1743 12.0527 97.1743 11.2994V4.97175C97.1743 4.35405 97.2528 3.80791 97.4097 3.33333C97.5667 2.85122 97.7746 2.43691 98.0335 2.0904C98.2846 1.73635 98.575 1.44256 98.9045 1.20904C99.2341 0.975518 99.5715 0.779661 99.9168 0.621469C100.709 0.26742 101.623 0.0602637 102.659 0C103.538 0 104.284 0.094162 104.896 0.282486C105.515 0.47081 106.041 0.715631 106.473 1.01695C106.904 1.31827 107.25 1.65725 107.509 2.0339C107.768 2.42561 107.968 2.81356 108.109 3.19774C108.25 3.58945 108.34 3.9661 108.38 4.32768C108.427 4.68927 108.45 5.00188 108.45 5.26554C108.45 5.64972 108.336 5.98117 108.109 6.25989C107.889 6.53107 107.375 6.66667 106.567 6.66667C106.3 6.66667 106.002 6.6403 105.672 6.58757C105.343 6.53484 105.06 6.42938 104.825 6.27119C104.59 6.11299 104.472 5.87571 104.472 5.55932C104.472 4.7533 104.354 4.12053 104.119 3.66102C103.891 3.19397 103.405 2.96045 102.659 2.96045C102.275 2.96045 101.977 3.03578 101.765 3.18644C101.561 3.3371 101.412 3.50282 101.317 3.68362C101.2 3.91714 101.137 4.15819 101.129 4.40678V11.6384C101.129 12.1205 101.302 12.5311 101.647 12.8701C102 13.209 102.44 13.3785 102.965 13.3785C103.593 13.3785 104.107 13.1375 104.507 12.6554C104.915 12.1657 105.241 11.6158 105.484 11.0056H104.354C104.134 10.9831 103.934 10.9266 103.754 10.8362C103.597 10.7608 103.456 10.6478 103.33 10.4972C103.212 10.3465 103.154 10.1394 103.154 9.87571C103.154 9.58945 103.212 9.371 103.33 9.22034C103.456 9.06215 103.597 8.94539 103.754 8.87006C103.95 8.77966 104.15 8.7307 104.354 8.72316H107.414C107.642 8.72316 107.885 8.81356 108.144 8.99435C108.411 9.16761 108.544 9.52166 108.544 10.0565Z" fill="#03C7A6"/>
<path d="M86.9577 1.49146L90.7007 11.2316H90.9832V1.85304C90.9832 1.3182 91.0773 0.892592 91.2657 0.576208C91.4618 0.252291 91.8934 0.090332 92.5604 0.090332C93.3058 0.090332 93.7806 0.244758 93.9846 0.553609C94.1964 0.86246 94.3024 1.29561 94.3024 1.85304V13.3107C94.3024 13.8003 94.271 14.2448 94.2082 14.644C94.1533 15.0357 94.0042 15.3446 93.7609 15.5706C93.5177 15.7965 93.1175 15.9095 92.5604 15.9095H91.0067C90.5594 15.9095 90.1946 15.8078 89.9121 15.6045C89.6296 15.4011 89.406 15.1525 89.2412 14.8587C89.0764 14.5649 88.943 14.2824 88.841 14.0112L85.2864 4.7683H85.0039V14.1468C85.0039 14.6817 84.9097 15.111 84.7214 15.435C84.5331 15.7513 84.1015 15.9095 83.4267 15.9095C82.6734 15.9095 82.1908 15.7551 81.9789 15.4463C81.7671 15.1374 81.6611 14.7043 81.6611 14.1468V2.6892C81.6611 2.19956 81.6886 1.75888 81.7435 1.36717C81.8063 0.975454 81.9632 0.666603 82.2143 0.440615C82.4654 0.207093 82.8695 0.090332 83.4267 0.090332H84.9803C85.3727 0.090332 85.6905 0.165662 85.9337 0.316321C86.1848 0.459447 86.3888 0.617639 86.5458 0.790897C86.7027 0.971688 86.84 1.20521 86.9577 1.49146Z" fill="#03C7A6"/>
<path d="M71.7275 0.090332H76.3414C76.8122 0.090332 77.2516 0.12423 77.6597 0.192027C78.0755 0.252291 78.409 0.395417 78.6601 0.621405C78.9191 0.847394 79.0485 1.20521 79.0485 1.69485C79.0485 2.18449 78.9191 2.54231 78.6601 2.7683C78.409 2.99429 78.0755 3.14118 77.6597 3.20898C77.2516 3.26924 76.8122 3.29937 76.3414 3.29937H73.5401V6.37282H75.0231C75.4861 6.37282 75.9177 6.40295 76.3178 6.46321C76.718 6.51594 77.0398 6.65154 77.283 6.86999C77.5341 7.08092 77.6597 7.42743 77.6597 7.90954C77.6597 8.39165 77.5341 8.74193 77.283 8.96039C77.0398 9.17131 76.718 9.3069 76.3178 9.36717C75.9177 9.4199 75.4861 9.44626 75.0231 9.44626H73.5401V12.7005H76.3414C76.8122 12.7005 77.2516 12.7306 77.6597 12.7909C78.0755 12.8512 78.409 12.9943 78.6601 13.2203C78.9191 13.4387 79.0485 13.7928 79.0485 14.2824C79.0485 14.7796 78.9191 15.1449 78.6601 15.3785C78.4012 15.6045 78.0638 15.7513 77.6479 15.8191C77.2398 15.8794 76.8043 15.9095 76.3414 15.9095H71.7275C71.1703 15.9095 70.7662 15.7928 70.5151 15.5593C70.2719 15.3257 70.1189 15.0131 70.0561 14.6214C69.9933 14.2297 69.9619 13.7928 69.9619 13.3107V2.6892C69.9619 2.20709 69.9933 1.77018 70.0561 1.37847C70.1189 0.986754 70.2719 0.674136 70.5151 0.440615C70.7662 0.207093 71.1703 0.090332 71.7275 0.090332Z" fill="#03C7A6"/>
<path d="M62.4521 13.3107V2.6892C62.4521 2.20709 62.4953 1.77018 62.5816 1.37847C62.6679 0.986754 62.8484 0.674136 63.1231 0.440615C63.4055 0.207093 63.8332 0.090332 64.406 0.090332C64.9788 0.090332 65.4026 0.207093 65.6772 0.440615C65.9597 0.674136 66.1441 0.986754 66.2304 1.37847C66.3167 1.77018 66.3599 2.20709 66.3599 2.6892V13.3107C66.3599 13.8003 66.3167 14.2448 66.2304 14.644C66.1519 15.0357 65.9715 15.3446 65.689 15.5706C65.4143 15.7965 64.9867 15.9095 64.406 15.9095C63.841 15.9095 63.4173 15.7965 63.1348 15.5706C62.8602 15.337 62.6758 15.0244 62.5816 14.6327C62.4953 14.241 62.4521 13.8003 62.4521 13.3107Z" fill="#03C7A6"/>
<path d="M48.7046 13.2881V2.6666C48.7046 2.18449 48.7321 1.75135 48.787 1.36717C48.8498 0.975454 49.0067 0.666603 49.2578 0.440615C49.5089 0.207093 49.913 0.090332 50.4701 0.090332H54.3543C55.3273 0.13553 56.1905 0.331387 56.9438 0.677903C57.2655 0.828562 57.5794 1.01312 57.8854 1.23157C58.1993 1.45003 58.4778 1.72498 58.7211 2.05643C58.9643 2.38035 59.1605 2.7683 59.3096 3.22028C59.4587 3.66472 59.5332 4.18073 59.5332 4.7683C59.5332 5.01689 59.494 5.30314 59.4155 5.62706C59.337 5.95097 59.2076 6.28996 59.0271 6.644C58.9094 6.88506 58.7328 7.12988 58.4974 7.37847C58.2777 7.61199 58.007 7.82668 57.6853 8.02254C57.3714 8.21839 56.9987 8.37658 56.5671 8.49711C57.2106 8.73817 57.7677 9.11858 58.2385 9.63835C58.7093 10.1581 58.9447 10.8775 58.9447 11.7965V13.4011C58.9447 13.4915 58.9682 13.5668 59.0153 13.6271C59.0624 13.6873 59.1095 13.74 59.1566 13.7852C59.337 13.9585 59.4469 14.1129 59.4861 14.2485C59.5175 14.3691 59.5332 14.4783 59.5332 14.5762C59.5332 15.0809 59.341 15.4463 58.9565 15.6723C58.572 15.8907 58.1365 15.9999 57.65 15.9999C57.1007 15.9999 56.5867 15.8417 56.1081 15.5254C55.6294 15.2014 55.3901 14.757 55.3901 14.192V11.7965C55.3901 11.1035 55.2724 10.5498 55.037 10.1355C54.8016 9.72122 54.3151 9.51406 53.5775 9.51406H52.2592V13.2881C52.2592 13.7852 52.2278 14.2335 52.165 14.6327C52.1023 15.0244 51.9453 15.337 51.6942 15.5706C51.451 15.7965 51.0429 15.9095 50.4701 15.9095C49.913 15.9095 49.5089 15.7965 49.2578 15.5706C49.0067 15.337 48.8498 15.0244 48.787 14.6327C48.7321 14.2335 48.7046 13.7852 48.7046 13.2881ZM52.2592 2.757V6.98299H53.86C54.2523 6.96792 54.6054 6.87753 54.9193 6.7118C55.2332 6.55361 55.4882 6.31632 55.6843 5.99994C55.8805 5.68355 55.9786 5.27301 55.9786 4.7683C55.9786 4.31632 55.8805 3.94344 55.6843 3.64965C55.496 3.35587 55.2567 3.14118 54.9664 3.00559C54.6839 2.86246 54.3465 2.7796 53.9541 2.757H52.2592Z" fill="#03C7A6"/>
<path d="M39.4297 0.090332H44.0201C44.4909 0.090332 44.9303 0.127997 45.3384 0.203326C45.7542 0.278656 46.0877 0.436848 46.3388 0.677903C46.5978 0.911424 46.7273 1.27301 46.7273 1.76265C46.7273 2.25229 46.5978 2.61764 46.3388 2.85869C46.0877 3.09222 45.7542 3.24664 45.3384 3.32197C44.9303 3.3973 44.4909 3.43496 44.0201 3.43496H41.2188V6.37282H42.7018C43.1726 6.37282 43.6121 6.40672 44.0201 6.47451C44.436 6.53478 44.7695 6.68544 45.0206 6.92649C45.2795 7.16001 45.409 7.53289 45.409 8.04513C45.409 8.55737 45.2834 8.93402 45.0323 9.17508C44.7812 9.4086 44.4477 9.55926 44.0319 9.62706C43.6238 9.68732 43.1805 9.71745 42.7018 9.71745H41.2188V13.3107C41.2188 13.8003 41.1874 14.241 41.1246 14.6327C41.0618 15.0244 40.9049 15.337 40.6538 15.5706C40.4027 15.7965 39.9947 15.9095 39.4297 15.9095C38.8647 15.9095 38.4567 15.7965 38.2056 15.5706C37.9545 15.3446 37.7976 15.0357 37.7348 14.644C37.672 14.2523 37.6406 13.8078 37.6406 13.3107V2.6892C37.6406 2.19956 37.672 1.75888 37.7348 1.36717C37.7976 0.975454 37.9545 0.666603 38.2056 0.440615C38.4567 0.207093 38.8647 0.090332 39.4297 0.090332Z" fill="#03C7A6"/>
<path fill-rule="evenodd" clip-rule="evenodd" d="M2.96278 16C1.32636 16 -0.000218481 14.6734 -0.000218418 13.037L-0.000218029 2.963C-0.000217966 1.32658 1.32636 -2.27757e-07 2.96278 -1.46724e-07C4.5992 -6.56904e-08 5.92578 1.32658 5.92578 2.963L5.92578 13.037C5.92578 14.6734 4.5992 16 2.96278 16Z" fill="#0AC8A2"/>
<path fill-rule="evenodd" clip-rule="evenodd" d="M27.037 16C25.4006 16 24.074 14.6734 24.074 13.037L24.074 2.963C24.074 1.32658 25.4006 -2.27757e-07 27.037 -1.46724e-07C28.6734 -6.56904e-08 30 1.32658 30 2.963L30 13.037C30 14.6734 28.6734 16 27.037 16Z" fill="#0AC8A2"/>
<path fill-rule="evenodd" clip-rule="evenodd" d="M29.6293 2.05566C25.7252 5.52165 20.5236 7.63657 14.8124 7.63657C9.28199 7.63657 4.2294 5.65343 0.370117 2.38072V7.84345C4.52218 10.4722 9.48321 12.0002 14.8124 12.0002C20.3028 12.0002 25.4025 10.3783 29.6293 7.60186V2.05566Z" fill="#0AC8A2"/>
</svg>
