<svg width="81" height="44" viewBox="0 0 81 44" fill="none" xmlns="http://www.w3.org/2000/svg">
<path fill-rule="evenodd" clip-rule="evenodd" d="M4 44C1.79086 44 -2.19506e-06 42.2091 -2.11137e-06 40L-7.47579e-07 4C-6.6389e-07 1.79086 1.79086 -7.16655e-07 4 -6.05235e-07L12 -2.01745e-07C14.2091 -9.03243e-08 16 1.79086 16 4L16 40C16 42.2091 14.2091 44 12 44L4 44Z" fill="white"/>
<path fill-rule="evenodd" clip-rule="evenodd" d="M69 44C66.7909 44 65 42.2091 65 40L65 4C65 1.79086 66.7909 -7.16655e-07 69 -6.05235e-07L77 -2.01745e-07C79.2091 -9.03243e-08 81 1.79086 81 4L81 40C81 42.2091 79.2091 44 77 44L69 44Z" fill="white"/>
<path fill-rule="evenodd" clip-rule="evenodd" d="M80 6.53557C69.5784 15.5421 55.9316 21.0001 40.9936 21.0001C25.5792 21.0001 11.5396 15.1884 1 5.66309V20.9124C12.4101 28.543 26.1746 33.0001 40.9936 33.0001C55.3877 33.0001 68.787 28.7949 80 21.5609V6.53557Z" fill="white"/>
</svg>
